<?xml version="1.0" encoding="UTF-8"?>
<svg width="222px" height="269px" viewBox="0 0 222 269" version="1.1" xmlns="http://www.w3.org/2000/svg" xmlns:xlink="http://www.w3.org/1999/xlink">
    <title>leonard-shield</title>
    <g id="Page-1" stroke="none" stroke-width="1" fill="none" fill-rule="evenodd">
        <g id="leonard" transform="translate(-411, -118)" fill="#B8D77A">
            <path d="M522.451023,118 C524.127271,118 525.368937,118.699063 526.190627,119.163884 L531.164593,121.744194 C534.148242,123.281399 537.16841,124.716124 540.19223,126.15085 C547.408498,129.569302 554.869446,133.104875 562.564119,135.945045 C573.129231,139.85394 582.920128,142.80025 592.502863,144.966978 C599.416018,146.522484 606.606721,147.671728 613.556395,148.784372 L616.101809,149.190634 C619.268056,149.706696 622.397783,150.284978 625.538466,150.90718 C625.695501,150.93646 625.962093,150.95842 626.265206,150.9877 C628.67915,151.221941 630.494172,151.489122 631.797921,152.788427 C633.240444,154.490333 633.043238,156.272759 632.904464,157.568404 C632.72917,164.965291 632.57944,172.102317 632.298239,179.246663 L632.07547,184.937984 C631.304907,205.148577 630.50878,226.047254 625.980353,246.232227 C622.288225,262.683987 616.653255,284.058465 605.799639,303.493136 C601.596236,311.014463 596.980162,319.015252 591.673869,326.51096 L589.71642,329.29989 C587.3463,332.696382 584.895837,336.209995 582.156869,339.489367 C578.176236,344.262024 573.976485,348.64672 570.393915,352.306734 C564.653039,358.173735 558.287678,363.528334 552.13413,368.707253 L551.374523,369.344096 C543.073625,376.331061 534.670471,381.788141 526.402441,385.568935 L525.843691,385.836116 C524.843055,386.322898 523.469919,387 521.782715,387 C521.282397,387 520.789383,386.93778 520.310976,386.820659 C518.028503,386.249697 515.968799,385.104113 514.153777,384.097609 L512.879244,383.402207 C510.490864,382.132182 508.222999,380.638897 506.031824,379.193192 C504.844938,378.413609 503.665356,377.637686 502.474818,376.902023 C496.204408,373.044369 490.653433,367.997211 485.277752,363.114753 C483.707411,361.683688 482.144373,360.263603 480.581336,358.887438 C467.427001,347.313679 455.841179,333.418441 446.954699,318.568655 C450.491291,319.092131 454.099792,319.323375 457.451202,319.127591 C461.775223,318.872561 466.077442,318.081967 470.325156,317.2768 C471.913053,316.978051 473.333802,317.036343 474.623741,317.429819 C475.942749,317.834224 477.127313,318.581098 478.221035,319.648582 C482.922954,324.217266 485.699047,327.904275 490.172047,332.658767 C492.715588,335.369374 495.498949,337.977969 501.112909,340.612067 C503.184078,341.577538 505.636779,342.5758 508.30023,343.39554 C512.849536,344.776346 518.031093,345.603373 523.020068,344.750843 C549.825362,340.167585 562.252379,325.084369 566.852555,320.114923 C577.491826,308.616702 583.20026,289.919343 578.033237,283.222978 C577.815219,282.953375 577.528162,282.74935 577.230205,282.665555 C576.459875,282.425098 575.587804,282.880509 575.518765,284.527275 C574.908678,297.597737 567.361157,305.303881 562.462706,309.028016 L562.066256,309.32517 C561.09103,310.045783 560.238742,310.599866 559.592561,310.999413 C548.081219,318.10747 535.705073,314.427748 534.04087,314.103496 C532.03874,313.713664 529.993006,313.229106 527.987241,312.62432 C521.57025,310.671517 515.436681,307.403487 511.614102,301.749103 C504.888251,291.791994 514.960675,272.508065 517.784006,267.768146 C522.169799,260.372269 524.393581,256.379224 528.873847,248.983348 C533.201502,241.820641 535.875854,239.554516 541.239093,237.441408 C548.208396,234.705298 552.626891,233.68882 561.587425,229.520898 C567.844537,226.613553 577.528162,221.545738 585.533051,211.814513 C591.008932,205.17644 595.144004,197.263217 595.214134,190.770876 C595.274815,184.40605 592.713105,178.274394 587.411638,174.106472 C583.091251,170.70364 578.868972,168.357361 574.512249,167.034848 C568.149762,165.100261 561.478416,165.329788 553.738782,167.570411 C547.074704,169.504997 539.86558,174.25949 533.862822,180.147045 C527.907302,185.969021 522.504093,193.343038 518.285448,199.21602 C513.550827,205.810373 510.869207,213.042301 507.842393,213.603368 C507.148369,213.73817 506.156388,213.617941 504.953657,213.246326 C502.028584,212.361006 497.846275,210.047518 493.584026,206.422445 C488.249856,201.88655 484.619859,195.426999 487.679376,186.304203 C491.392947,175.235891 495.782373,170.164433 501.617984,165.927288 C506.087349,162.688404 513.009416,160.229184 524.237335,160.152675 C525.756192,160.138101 524.756944,158.057783 523.906674,157.660665 C522.620369,157.088668 521.326796,156.607754 520.02959,156.214279 C511.007285,153.474526 501.523509,154.909982 492.919072,158.604277 C479.009533,164.579271 472.796025,171.50152 467.730744,182.045198 C462.073181,193.838525 461.121169,201.853761 462.600057,208.73229 C464.489545,217.530833 466.302727,220.146715 471.876716,226.176358 C475.910046,230.537375 485.106766,236.45772 490.691656,239.926131 C492.940873,241.314224 492.788261,242.644025 491.392947,244.840928 C488.729495,249.045284 485.244844,257.905762 482.454215,262.048182 C481.164276,263.949979 479.685389,264.718713 477.821336,264.143073 C477.367132,264.004628 476.898394,263.793318 476.400587,263.505498 C474.449327,262.354218 467.087591,256.575962 459.264384,254.029303 C459.01003,253.952794 458.755676,253.872642 458.501322,253.796132 C450.111268,251.242187 441.659443,251.530007 433.727228,254.652305 C429.155806,256.459384 425.247061,258.957042 422.013923,262.015277 C419.575327,253.234085 417.447327,243.949244 415.536329,233.725962 C414.155889,226.318095 413.754174,218.694287 413.363414,211.31936 L413.133341,207.033484 C412.505204,196.177885 412.026798,185.267385 411.646995,176.029511 C411.446137,171.238554 411.252583,166.432956 411.212412,161.634679 C411.20876,161.378478 411.17224,161.019797 411.139373,160.606215 C410.905647,157.824605 410.511236,153.165408 414.280056,151.792903 C417.29292,150.691239 420.50299,150.317918 423.603502,149.959236 C424.896295,149.809176 426.170828,149.662775 427.390581,149.457815 C432.718787,148.564771 438.054296,147.638788 443.382501,146.698165 C452.285973,145.135339 461.532728,142.75633 473.372372,138.986516 C480.636115,136.677048 488.312529,133.602637 497.522764,129.302121 L499.104062,128.562798 C503.647096,126.439991 508.339861,124.247643 512.839072,121.927194 C514.350982,121.151271 515.848285,120.364369 517.338283,119.581126 L517.81669,119.306625 C518.704115,118.786903 520.044383,118 521.819235,118 L522.451023,118 Z M445.540161,270.999624 C446.891872,270.992457 448.545174,271.320353 450.202109,271.82677 C452.593038,272.559071 455.027571,273.655701 456.655437,274.643032 C460.630629,277.062176 462.283931,278.038578 464.867443,282.068055 C465.623238,283.248481 469.612964,288.77535 464.772968,293.905101 C460.15099,298.794395 454.268142,299.122291 447.629499,297.107552 C445.551062,296.47362 443.399953,295.610161 441.197972,294.593683 C430.387921,289.587804 431.605187,281.925967 435.365995,276.595835 C438.123921,272.682943 440.776471,271.025246 445.540161,270.999624 Z M578.127711,188.563042 C579.025218,188.836289 579.835518,189.233408 580.529541,189.790831 C582.924104,191.765493 583.992391,194.720201 582.498969,199.18323 C581.009181,203.646259 576.459875,209.417229 570.388078,213.781889 C565.97685,216.947907 559.930489,218.802341 556.547579,220.172218 C556.297849,220.271448 555.456471,220.576995 554.301454,220.965499 L553.788055,221.136719 C550.336684,222.277992 544.759618,223.926263 543.066809,223.414745 C542.925097,223.371026 542.812455,223.305447 542.725248,223.232581 C541.260894,221.910067 546.391581,214.011416 550.007043,208.918098 C554.167551,203.03783 557.652202,200.502101 560.177576,197.463597 C561.94352,195.324987 565.595319,192.166255 567.775498,190.406547 C570.101021,188.519323 574.68303,187.510132 578.127711,188.563042 Z" id="leonard-shield"></path>
        </g>
    </g>
</svg>